<svg width="80" height="80" viewBox="0 0 80 80" fill="none" xmlns="http://www.w3.org/2000/svg">
<path d="M30.6537 20.3268C33.7009 14.7863 35.2246 12.0161 37.2379 11.0996C38.9927 10.3008 41.0073 10.3008 42.762 11.0996C44.7753 12.0161 46.299 14.7863 49.3463 20.3268L67.9727 54.1931C70.8348 59.3968 72.2658 61.9987 72.0108 64.1267C71.7883 65.9835 70.7962 67.6615 69.2764 68.7513C67.5347 70.0002 64.5653 70.0002 58.6264 70.0002H21.3735C15.4347 70.0002 12.4652 70.0002 10.7235 68.7513C9.20375 67.6615 8.21159 65.9835 7.98911 64.1267C7.73414 61.9987 9.16517 59.3968 12.0272 54.1931L30.6537 20.3268Z" fill="#FF9F43" fill-opacity="0.2"/>
<path d="M40 56.6669H40.0333M40 33.3336V46.6669M21.3735 70.0002H58.6264C64.5653 70.0002 67.5347 70.0002 69.2764 68.7513C70.7962 67.6615 71.7883 65.9835 72.0108 64.1267C72.2658 61.9987 70.8348 59.3968 67.9727 54.1931L49.3463 20.3268C46.299 14.7863 44.7753 12.0161 42.762 11.0996C41.0073 10.3008 38.9927 10.3008 37.2379 11.0996C35.2246 12.0161 33.7009 14.7863 30.6537 20.3268L12.0272 54.1931C9.16517 59.3968 7.73414 61.9987 7.98911 64.1267C8.21159 65.9835 9.20375 67.6615 10.7235 68.7513C12.4652 70.0002 15.4347 70.0002 21.3735 70.0002Z" stroke="#FF9F43" stroke-width="5" stroke-linecap="round" stroke-linejoin="round"/>
</svg>
