<svg width="24" height="24" viewBox="0 0 24 24" fill="none" xmlns="http://www.w3.org/2000/svg">
<g opacity="0.8">
<path d="M3.00046 3L6.58962 6.58916M21.0005 21L17.4117 17.4112M13.8753 18.8246C13.2682 18.9398 12.6416 19 12.0009 19C7.52326 19 3.73296 16.0571 2.45871 12C2.80561 10.8955 3.33897 9.87361 4.02189 8.97118M9.87914 9.87868C10.422 9.33579 11.172 9 12.0005 9C13.6573 9 15.0005 10.3431 15.0005 12C15.0005 12.8284 14.6647 13.5784 14.1218 14.1213M9.87914 9.87868L14.1218 14.1213M9.87914 9.87868L6.58962 6.58916M14.1218 14.1213L6.58962 6.58916M14.1218 14.1213L17.4117 17.4112M6.58962 6.58916C8.14944 5.58354 10.007 5 12.0009 5C16.4785 5 20.2689 7.94291 21.5431 12C20.8362 14.2507 19.355 16.1585 17.4117 17.4112" stroke="#28446F" stroke-width="2" stroke-linecap="round" stroke-linejoin="round"/>
</g>
</svg>
