<svg width="80" height="80" viewBox="0 0 80 80" fill="none" xmlns="http://www.w3.org/2000/svg">
<path d="M17.0312 62.9688C14.1562 60.0938 16.0625 54.0625 14.5938 50.5312C13.125 47 7.5 43.9062 7.5 40C7.5 36.0938 13.0625 33.125 14.5938 29.4688C16.125 25.8125 14.1562 19.9062 17.0312 17.0312C19.9062 14.1562 25.9375 16.0625 29.4688 14.5938C33 13.125 36.0938 7.5 40 7.5C43.9062 7.5 46.875 13.0625 50.5312 14.5938C54.1875 16.125 60.0938 14.1562 62.9688 17.0312C65.8438 19.9062 63.9375 25.9375 65.4062 29.4688C66.875 33 72.5 36.0938 72.5 40C72.5 43.9062 66.9375 46.875 65.4062 50.5312C63.875 54.1875 65.8438 60.0938 62.9688 62.9688C60.0938 65.8438 54.0625 63.9375 50.5312 65.4062C47 66.875 43.9062 72.5 40 72.5C36.0938 72.5 33.125 66.9375 29.4688 65.4062C25.8125 63.875 19.9062 65.8438 17.0312 62.9688Z" fill="#28C76F" fill-opacity="0.2"/>
<path d="M53.75 32.5L35.4062 50L26.25 41.25M17.0312 62.9688C14.1562 60.0938 16.0625 54.0625 14.5938 50.5312C13.125 47 7.5 43.9062 7.5 40C7.5 36.0938 13.0625 33.125 14.5938 29.4688C16.125 25.8125 14.1562 19.9062 17.0312 17.0312C19.9062 14.1562 25.9375 16.0625 29.4688 14.5938C33 13.125 36.0938 7.5 40 7.5C43.9062 7.5 46.875 13.0625 50.5312 14.5938C54.1875 16.125 60.0938 14.1562 62.9688 17.0312C65.8438 19.9062 63.9375 25.9375 65.4062 29.4688C66.875 33 72.5 36.0938 72.5 40C72.5 43.9062 66.9375 46.875 65.4062 50.5312C63.875 54.1875 65.8438 60.0938 62.9688 62.9688C60.0938 65.8438 54.0625 63.9375 50.5312 65.4062C47 66.875 43.9062 72.5 40 72.5C36.0938 72.5 33.125 66.9375 29.4688 65.4062C25.8125 63.875 19.9062 65.8438 17.0312 62.9688Z" stroke="#28C76F" stroke-width="5" stroke-linecap="round" stroke-linejoin="round"/>
</svg>
