<svg width="24" height="22" viewBox="0 0 24 22" fill="none" xmlns="http://www.w3.org/2000/svg">
<path d="M11.2012 0.29211C11.4214 0.103932 11.7056 0 12 0C12.2944 0 12.5786 0.103932 12.7988 0.29211L23.6256 9.55563C23.8519 9.76257 23.9858 10.0461 23.9989 10.3463C24.0121 10.6465 23.9035 10.9399 23.6961 11.1644C23.4888 11.389 23.1988 11.5272 22.8875 11.5498C22.5763 11.5724 22.268 11.4777 22.028 11.2856L21.6238 10.9417V19.6841C21.6238 20.2983 21.3703 20.8874 20.9191 21.3217C20.4679 21.756 19.8559 22 19.2178 22H4.78215C4.14405 22 3.53209 21.756 3.08089 21.3217C2.62968 20.8874 2.3762 20.2983 2.3762 19.6841V10.9417L1.972 11.2856C1.73196 11.4777 1.42374 11.5724 1.11247 11.5498C0.801201 11.5272 0.511247 11.389 0.303861 11.1644C0.0964762 10.9399 -0.012099 10.6465 0.00107239 10.3463C0.0142438 10.0461 0.14813 9.76257 0.374448 9.55563L11.2012 0.29211ZM4.78215 8.88055V19.6841H8.39107V13.8944C8.39107 13.5873 8.51782 13.2928 8.74342 13.0756C8.96902 12.8585 9.275 12.7365 9.59405 12.7365H14.4059C14.725 12.7365 15.031 12.8585 15.2566 13.0756C15.4822 13.2928 15.6089 13.5873 15.6089 13.8944V19.6841H19.2178V8.8817L12 2.70641L4.78215 8.88055ZM13.203 19.6841V15.0524H10.797V19.6841H13.203Z" fill="#045B80"/>
</svg>
